<?xml version="1.0" encoding="UTF-8"?>
<svg width="128px" height="95px" viewBox="0 0 128 95" version="1.1" xmlns="http://www.w3.org/2000/svg" xmlns:xlink="http://www.w3.org/1999/xlink">
    <title>Shape</title>
    <g id="ADEX_UI/UX" stroke="none" stroke-width="1" fill="none" fill-rule="evenodd">
        <g id="03_ADEX_Our_services" transform="translate(-862.000000, -1134.000000)" fill="#E96F2E" fill-rule="nonzero">
            <g id="03-We-SERVE" transform="translate(164.000000, 826.000000)">
                <g id="Conference_foreground_selected" transform="translate(698.000000, 308.000000)">
                    <path d="M31,0.599609 C29.9,0.599609 28.900391,1.199219 28.400391,2.199219 C27.900391,3.199219 27.9,4.400781 28.5,5.300781 C31.2,9.300781 34.4,12.999609 38,16.099609 L38,36 C38,50.3 49.7,62 64,62 C78.3,62 90,50.3 90,36 L90,25 L90,24.800781 C89.3,11.300781 78.199609,0.599609 64.599609,0.599609 L31,0.599609 Z M44,20.800781 C53.2,27.000781 63.999219,30.300781 75.199219,30.300781 C78.099219,30.300781 81.1,30.099609 84,29.599609 L84,36 C84,47 75,56 64,56 C53,56 44,47 44,36 L44,20.800781 Z M31.302734,23.380859 C31.102344,23.398242 30.899219,23.4375 30.699219,23.5 C21.699219,25.9 15.5,34.000781 15.5,43.300781 C15.5,54.800781 24.7,63.900391 36,63.900391 C38.6,63.900391 41.199609,63.400391 43.599609,62.400391 C45.099609,61.800391 45.900781,60 45.300781,58.5 C44.700781,57 42.900391,56.200781 41.400391,56.800781 C39.700391,57.500781 37.9,57.800781 36,57.800781 C28,57.800781 21.5,51.300781 21.5,43.300781 C21.5,36.700781 25.900781,31.000781 32.300781,29.300781 C33.900781,28.900781 34.900391,27.199609 34.400391,25.599609 C34.050391,24.199609 32.705469,23.25918 31.302734,23.380859 Z M96.203125,23.513672 C94.819531,23.458984 93.549219,24.400781 93.199219,25.800781 C92.799219,27.400781 93.800391,29.000391 95.400391,29.400391 C102.00039,30.900391 106.5,36.7 106.5,43.5 C106.5,51.4 100,57.900391 92,57.900391 C90.1,57.900391 88.299609,57.600391 86.599609,56.900391 C85.099609,56.300391 83.299219,56.999609 82.699219,58.599609 C82.099219,60.099609 82.800391,61.9 84.400391,62.5 C86.800391,63.5 89.4,64 92,64 C103.3,64 112.5,54.8 112.5,43.5 C112.5,34 106.00078,25.799609 96.800781,23.599609 C96.600781,23.549609 96.400781,23.521484 96.203125,23.513672 Z M64,67.400391 C47.6,67.400391 32.400781,76.3 24.300781,90.5 C23.500781,91.9 24.000391,93.79961 25.400391,94.59961 C25.900391,94.89961 26.400391,95 26.900391,95 C27.900391,95 29,94.5 29.5,93.5 C36.5,81.1 49.7,73.400391 64,73.400391 C78.2,73.400391 91.4,81.1 98.5,93.5 C99.3,94.9 101.19961,95.39961 102.59961,94.59961 C103.99961,93.79961 104.49922,92 103.69922,90.5 C95.599219,76.3 80.4,67.400391 64,67.400391 Z M25.802734,71.50977 C25.602344,71.52031 25.399219,71.54961 25.199219,71.59961 C14.999219,74.49961 6.2,81.4 1,90.5 C0.2,91.9 0.69960937,93.79961 2.0996094,94.59961 C2.5996094,94.89961 3.0996094,95 3.5996094,95 C4.5996094,95 5.6992187,94.5 6.1992188,93.5 C10.599219,85.7 18.100781,79.80039 26.800781,77.40039 C28.400781,77.00039 29.300391,75.29922 28.900391,73.69922 C28.550391,72.29922 27.205469,71.43594 25.802734,71.50977 Z M102.19727,71.50977 C100.79453,71.43594 99.449609,72.29922 99.099609,73.69922 C98.699609,75.29922 99.599219,77.00039 101.19922,77.40039 C109.79922,79.80039 117.30078,85.7 121.80078,93.5 C122.40078,94.5 123.40039,95 124.40039,95 C124.90039,95 125.40039,94.89961 125.90039,94.59961 C127.30039,93.79961 127.8,92 127,90.5 C121.8,81.3 113.00078,74.39961 102.80078,71.59961 C102.60078,71.54961 102.39766,71.52031 102.19727,71.50977 Z" id="Shape"></path>
                </g>
            </g>
        </g>
    </g>
</svg>