<?xml version="1.0" encoding="UTF-8"?>
<svg width="116px" height="121px" viewBox="0 0 116 121" version="1.1" xmlns="http://www.w3.org/2000/svg" xmlns:xlink="http://www.w3.org/1999/xlink">
    <title>Location</title>
    <g id="ADEX_UI/UX" stroke="none" stroke-width="1" fill="none" fill-rule="evenodd">
        <g id="03_ADEX_Our_services" transform="translate(-205.000000, -1108.000000)" fill="#E96F2E" fill-rule="nonzero">
            <g id="03-We-SERVE" transform="translate(164.000000, 826.000000)">
                <g id="Location" transform="translate(41.000000, 282.000000)">
                    <path d="M83,0 C67.8,0 55.5,12.300391 55,27.900391 C54.6,42.400391 68.500781,61.5 76.800781,71.5 C78.400781,73.4 80.6,74.400391 83,74.400391 C85.4,74.400391 87.599219,73.3 89.199219,71.5 C97.49922,61.4 111.5,42.400391 111,27.900391 C110.5,12.300391 98.2,0 83,0 Z M46.730469,5.61823647 C46.523438,5.6242187 46.312109,5.6492188 46.099609,5.6992188 C28.099609,9.599219 13.3,21.3 5.5,38 C-1,52 -1.7003906,67.800781 3.5996094,82.300781 C8.899609,96.800781 19.499609,108.5 33.599609,115 C41.399609,118.6 49.699609,120.5 58.099609,120.5 C64.799609,120.5 71.5,119.3 78,117 C92.6,111.7 104.19922,101.1 110.69922,87 C113.49922,81 115.20039,74.699219 115.90039,68.199219 C116.10039,66.599219 114.89922,65.100391 113.19922,64.900391 C111.59922,64.700391 110.10039,65.899609 109.90039,67.599609 C109.30039,73.399609 107.80078,79.1 105.30078,84.5 C99.40078,97.1 89,106.60039 76,111.40039 C63,116.10039 48.800781,115.49922 36.300781,109.69922 C34.400781,108.79922 32.600781,107.79922 30.800781,106.69922 C32.500781,106.59922 34.300391,106.09922 35.900391,105.19922 C37.700391,104.19922 39.599219,102.99961 41.699219,101.59961 C43.099219,100.59961 44.299219,99.30078 45.199219,97.800781 C46.199219,96.000781 47.4,94.100391 48,91.900391 C51.9,76.900391 38.9,76.3 38.5,73 C38.1,69.3 42.900781,66.499609 45.800781,63.599609 C48.700781,60.699609 49.599609,56.199609 48.099609,53.599609 C43.299609,44.999609 31.900781,49.499219 30.800781,58.699219 C30.200781,64.199219 26.899609,69.799219 24.099609,72.699219 C21.299609,75.499219 15.800781,74.000391 14.300781,69.900391 C12.600781,65.300391 18.499609,63.599219 17.599609,57.699219 C17.399609,56.099219 15.699609,55.3 13.599609,55 L6.699219,55.199219 C7.399219,50.199219 8.899609,45.299219 11.099609,40.699219 C17.899609,25.599219 31.200391,15.099609 47.400391,11.599609 C49.000391,11.299609 50.099219,9.7 49.699219,8 C49.436719,6.6 48.179688,5.5835938 46.730469,5.61823647 Z M83,18 C88.5,18 93,22.5 93,28 C93,33.5 88.5,38 83,38 C77.5,38 73,33.5 73,28 C73,22.5 77.5,18 83,18 Z" id="Shape"></path>
                </g>
            </g>
        </g>
    </g>
</svg>